<svg width="135" height="20" viewBox="0 0 135 20" fill="none" xmlns="http://www.w3.org/2000/svg">
<path d="M28.154 14.202C29.0313 14.0807 29.638 13.4367 29.974 12.27C30.3193 11.1033 30.492 9.39533 30.492 7.146V5.158H35.896V15H34.916V6.026H31.43V7.16C31.43 8.41067 31.3833 9.47933 31.29 10.366C31.1967 11.2433 31.0333 12.0507 30.8 12.788C30.5667 13.516 30.2307 14.076 29.792 14.468C29.3533 14.8507 28.8073 15.0653 28.154 15.112V14.202ZM38.3488 15V7.958H39.2728V12.578C39.2728 13.222 39.2588 13.572 39.2308 13.628H39.2588C39.2962 13.5627 39.5388 13.2127 39.9868 12.578L43.4448 7.958H44.3548V15H43.4168V10.366C43.4168 10.2447 43.4168 10.1047 43.4168 9.946C43.4262 9.78733 43.4355 9.652 43.4448 9.54C43.4542 9.41867 43.4588 9.35333 43.4588 9.344H43.4308C43.4308 9.36267 43.3888 9.428 43.3048 9.54C43.2302 9.652 43.1275 9.792 42.9968 9.96C42.8755 10.128 42.7822 10.2633 42.7168 10.366L39.2588 15H38.3488ZM48.5103 12.424C47.717 12.424 47.1243 12.2327 46.7323 11.85C46.3403 11.458 46.1443 10.9073 46.1443 10.198V7.958H47.0823V10.1C47.0823 10.548 47.1897 10.9073 47.4043 11.178C47.6283 11.4393 48.053 11.57 48.6783 11.57C49.3503 11.57 49.9337 11.3787 50.4283 10.996V7.958H51.3803V15H50.4283V12.326L50.4563 11.878H50.4283C49.8403 12.242 49.201 12.424 48.5103 12.424ZM53.6477 15V7.958H54.5997V10.968H58.7157V7.958H59.6677V15H58.7157V11.808H54.5997V15H53.6477ZM68.0508 15V7.958H69.0028V15H68.0508ZM61.9328 15V7.958H62.8848V10.646H64.3968C65.1062 10.646 65.6942 10.8187 66.1608 11.164C66.6275 11.5093 66.8608 12.0693 66.8608 12.844C66.8608 13.5067 66.6508 14.034 66.2308 14.426C65.8108 14.8087 65.1902 15 64.3688 15H61.9328ZM62.8848 14.244H64.2848C65.3488 14.244 65.8808 13.7727 65.8808 12.83C65.8808 12.382 65.7502 12.032 65.4888 11.78C65.2275 11.528 64.8308 11.402 64.2988 11.402H62.8848V14.244ZM75.5687 6.586C75.2047 6.88467 74.7707 7.034 74.2667 7.034C73.7627 7.034 73.3287 6.88467 72.9647 6.586C72.6007 6.28733 72.4187 5.886 72.4187 5.382V5.144H73.2447V5.354C73.2447 5.65267 73.3427 5.89067 73.5387 6.068C73.7441 6.236 73.9867 6.32 74.2667 6.32C74.5467 6.32 74.7894 6.236 74.9947 6.068C75.2001 5.89067 75.3027 5.648 75.3027 5.34V5.144H76.1147V5.382C76.1147 5.886 75.9327 6.28733 75.5687 6.586ZM71.2707 15V7.958H72.1947V12.578C72.1947 13.222 72.1807 13.572 72.1527 13.628H72.1807C72.2181 13.5627 72.4607 13.2127 72.9087 12.578L76.3667 7.958H77.2767V15H76.3387V10.366C76.3387 10.2447 76.3387 10.1047 76.3387 9.946C76.3481 9.78733 76.3574 9.652 76.3667 9.54C76.3761 9.41867 76.3807 9.35333 76.3807 9.344H76.3527C76.3527 9.36267 76.3107 9.428 76.2267 9.54C76.1521 9.652 76.0494 9.792 75.9187 9.96C75.7974 10.128 75.7041 10.2633 75.6387 10.366L72.1807 15H71.2707ZM83.0422 15V7.958H83.9942V10.94H85.1142L87.2282 7.958H88.3482L85.8982 11.304V11.332L88.6282 15H87.4662L85.1282 11.78H83.9942V15H83.0422ZM89.2758 13.11C89.2758 11.4767 90.7038 10.66 93.5598 10.66H93.9798V10.464C93.9798 9.25067 93.4011 8.644 92.2438 8.644C91.5251 8.644 90.8578 8.868 90.2418 9.316L89.8078 8.588C90.0878 8.34533 90.4565 8.154 90.9138 8.014C91.3711 7.86467 91.8331 7.79 92.2998 7.79C93.1491 7.79 93.7978 8.02333 94.2458 8.49C94.7031 8.94733 94.9318 9.61467 94.9318 10.492V15H94.0218V14.174L94.0638 13.586H94.0358C93.8398 14.034 93.5271 14.412 93.0978 14.72C92.6778 15.0187 92.1971 15.168 91.6558 15.168C91.0118 15.168 90.4518 14.986 89.9758 14.622C89.5091 14.258 89.2758 13.754 89.2758 13.11ZM90.2418 13.026C90.2418 13.3807 90.3818 13.6933 90.6618 13.964C90.9418 14.2347 91.3291 14.37 91.8238 14.37C92.4678 14.37 92.9858 14.0993 93.3778 13.558C93.7791 13.0167 93.9798 12.41 93.9798 11.738V11.416H93.5738C93.2751 11.416 93.0138 11.4207 92.7898 11.43C92.5751 11.4393 92.2905 11.4767 91.9358 11.542C91.5905 11.598 91.3058 11.6773 91.0818 11.78C90.8578 11.8827 90.6618 12.0413 90.4938 12.256C90.3258 12.4707 90.2418 12.7273 90.2418 13.026ZM96.8162 11.01C96.8162 9.74067 97.0216 8.71867 97.4322 7.944C97.8429 7.16933 98.6036 6.53 99.7142 6.026L102.318 4.808L102.668 5.606L99.9522 6.852C99.1776 7.216 98.6176 7.65467 98.2722 8.168C97.9362 8.68133 97.7449 9.32533 97.6982 10.1H97.7262C98.2769 9.11067 99.1542 8.616 100.358 8.616C101.236 8.616 101.95 8.91 102.5 9.498C103.06 10.0767 103.34 10.8653 103.34 11.864C103.34 12.8347 103.042 13.628 102.444 14.244C101.847 14.86 101.077 15.168 100.134 15.168C99.0236 15.168 98.1929 14.79 97.6422 14.034C97.0916 13.278 96.8162 12.27 96.8162 11.01ZM97.8522 11.85C97.8522 12.606 98.0669 13.208 98.4962 13.656C98.9256 14.104 99.4622 14.328 100.106 14.328C100.75 14.328 101.287 14.1087 101.716 13.67C102.146 13.222 102.36 12.6247 102.36 11.878C102.36 11.122 102.146 10.5247 101.716 10.086C101.296 9.638 100.778 9.414 100.162 9.414C99.4809 9.414 98.9256 9.64733 98.4962 10.114C98.0669 10.5807 97.8522 11.1593 97.8522 11.85ZM105.191 15V7.958H106.115V12.578C106.115 13.222 106.101 13.572 106.073 13.628H106.101C106.138 13.5627 106.381 13.2127 106.829 12.578L110.287 7.958H111.197V15H110.259V10.366C110.259 10.2447 110.259 10.1047 110.259 9.946C110.268 9.78733 110.277 9.652 110.287 9.54C110.296 9.41867 110.301 9.35333 110.301 9.344H110.273C110.273 9.36267 110.231 9.428 110.147 9.54C110.072 9.652 109.969 9.792 109.839 9.96C109.717 10.128 109.624 10.2633 109.559 10.366L106.101 15H105.191ZM113.462 15V7.958H114.414V10.968H118.53V7.958H119.482V15H118.53V11.808H114.414V15H113.462ZM121.271 11.486C121.271 10.366 121.603 9.47 122.265 8.798C122.937 8.126 123.768 7.79 124.757 7.79C125.691 7.79 126.414 8.10267 126.927 8.728C127.441 9.344 127.697 10.114 127.697 11.038C127.697 11.15 127.688 11.3087 127.669 11.514H122.265C122.284 12.382 122.555 13.0633 123.077 13.558C123.6 14.0527 124.239 14.3 124.995 14.3C125.807 14.3 126.521 14.02 127.137 13.46L127.571 14.188C127.245 14.4867 126.843 14.7247 126.367 14.902C125.901 15.0793 125.434 15.168 124.967 15.168C123.913 15.168 123.031 14.8227 122.321 14.132C121.621 13.4413 121.271 12.5593 121.271 11.486ZM122.307 10.758H126.731C126.703 10.058 126.503 9.52133 126.129 9.148C125.756 8.76533 125.289 8.574 124.729 8.574C124.123 8.574 123.595 8.76533 123.147 9.148C122.699 9.53067 122.419 10.0673 122.307 10.758ZM131.14 15V8.798H128.578V7.958H134.668V8.798H132.092V15H131.14Z" fill="#292933"/>
<path fill-rule="evenodd" clip-rule="evenodd" d="M10 10.0833C7.975 10.0833 6.33337 8.44171 6.33337 6.41667C6.33337 4.39162 7.975 2.75 10 2.75C12.0251 2.75 13.6667 4.39162 13.6667 6.41667C13.6667 8.44171 12.0251 10.0833 10 10.0833ZM5.33337 6.41667C5.33337 3.83934 7.42271 1.75 10 1.75C12.5774 1.75 14.6667 3.83934 14.6667 6.41667C14.6667 8.994 12.5774 11.0833 10 11.0833C7.42271 11.0833 5.33337 8.994 5.33337 6.41667ZM8.83333 12.9167C5.33553 12.9167 2.5 15.7522 2.5 19.25H3.5C3.5 16.3045 5.88781 13.9167 8.83333 13.9167H11.1667C14.1122 13.9167 16.5 16.3045 16.5 19.25H17.5C17.5 15.7522 14.6645 12.9167 11.1667 12.9167H8.83333Z" fill="#292933"/>
</svg>
